# xmcd
#
# Track frame offsets: 
#        150
#        20456
#        37668
#        50657
#        65501
#        82075
#        99330
#        115595
#        130130
#        147159
#        164475
#        180434
#
# Disc length: 2588 seconds
#
# Revision: 2
# Processed by: cddbd v1.5.2PL0 Copyright (c) Steve Scherf et al.
# Submitted via: ExactAudioCopyFreeDBPlugin 1.0
#
DISCID=970a1a0c
DTITLE=Warbringer - War Without End
DYEAR=2008
DGENRE=Thrash Metal
TTITLE0=Total War
TTITLE1=Systematic Genocide
TTITLE2=Dread Command
TTITLE3=Hell on Earth
TTITLE4=At the Crack of Doom
TTITLE5=Beneath the Waves
TTITLE6=Instruments of Torture
TTITLE7=Shoot to Kill
TTITLE8=Born of the Ruins
TTITLE9=Combat Shock
TTITLE10=Nightslasher
TTITLE11=untitled
EXTD=YEAR: 2008
EXTT0=
EXTT1=
EXTT2=
EXTT3=
EXTT4=
EXTT5=
EXTT6=
EXTT7=
EXTT8=
EXTT9=
EXTT10=
EXTT11=
PLAYORDER=
